<svg xmlns="http://www.w3.org/2000/svg" viewBox="0 0 512 512">
  <defs>
    <clipPath id="shape"><rect width="512" height="512" rx="114"/></clipPath>
    <linearGradient id="sky" x1="0" y1="0" x2="1" y2="1">
      <stop offset="0" stop-color="#cdbdfb"/><stop offset=".5" stop-color="#f6c1d6"/><stop offset="1" stop-color="#ffd9b8"/>
    </linearGradient>
    <radialGradient id="bloom" cx=".22" cy=".16" r=".6"><stop offset="0" stop-color="#fff" stop-opacity=".85"/><stop offset="1" stop-color="#fff" stop-opacity="0"/></radialGradient>
    <radialGradient id="mint" cx=".95" cy=".95" r=".55"><stop offset="0" stop-color="#bfeee6" stop-opacity=".9"/><stop offset="1" stop-color="#bfeee6" stop-opacity="0"/></radialGradient>
    <linearGradient id="pearl" x1="0" y1="0" x2=".6" y2="1"><stop offset="0" stop-color="#ffffff"/><stop offset=".6" stop-color="#f7f2ff"/><stop offset="1" stop-color="#e9e0fb"/></linearGradient>
    <linearGradient id="side" x1="0" y1="0" x2="0" y2="1"><stop offset="0" stop-color="#cbbdf0"/><stop offset="1" stop-color="#a996e0"/></linearGradient>
    <linearGradient id="screen" x1="0" y1="0" x2="1" y2="1"><stop offset="0" stop-color="#8a74e8"/><stop offset=".55" stop-color="#c784c9"/><stop offset="1" stop-color="#ff9aa9"/></linearGradient>
    <linearGradient id="screenGloss" x1="0" y1="0" x2="0" y2="1"><stop offset="0" stop-color="#fff" stop-opacity=".45"/><stop offset=".5" stop-color="#fff" stop-opacity="0"/></linearGradient>
    <linearGradient id="gold" x1=".2" y1="0" x2=".8" y2="1"><stop offset="0" stop-color="#fff1b0"/><stop offset=".45" stop-color="#ffd35c"/><stop offset="1" stop-color="#f0a72b"/></linearGradient>
    <filter id="lift" x="-40%" y="-40%" width="180%" height="180%">
      <feDropShadow dx="0" dy="18" stdDeviation="18" flood-color="#5a3b9e" flood-opacity=".32"/>
    </filter>
    <filter id="glow" x="-50%" y="-50%" width="200%" height="200%"><feGaussianBlur stdDeviation="10"/></filter>
    <filter id="soft" x="-50%" y="-50%" width="200%" height="200%"><feDropShadow dx="0" dy="6" stdDeviation="6" flood-color="#b0721a" flood-opacity=".35"/></filter>
    <radialGradient id="k0" cx=".35" cy=".3" r=".8"><stop offset="0" stop-color="#3b3b3b"/><stop offset="1" stop-color="#1c1c1c"/></radialGradient><radialGradient id="k1" cx=".35" cy=".3" r=".8"><stop offset="0" stop-color="#c0aefa"/><stop offset="1" stop-color="#8f78e6"/></radialGradient><radialGradient id="k2" cx=".35" cy=".3" r=".8"><stop offset="0" stop-color="#ff9fb6"/><stop offset="1" stop-color="#e0668a"/></radialGradient><radialGradient id="k3" cx=".35" cy=".3" r=".8"><stop offset="0" stop-color="#b3da90"/><stop offset="1" stop-color="#76a852"/></radialGradient><radialGradient id="k4" cx=".35" cy=".3" r=".8"><stop offset="0" stop-color="#9cb8f5"/><stop offset="1" stop-color="#5f80d8"/></radialGradient><radialGradient id="k5" cx=".35" cy=".3" r=".8"><stop offset="0" stop-color="#ffab9c"/><stop offset="1" stop-color="#ec6a58"/></radialGradient>
  </defs>
  <g clip-path="url(#shape)">
    <rect width="512" height="512" fill="url(#sky)"/>
    <rect width="512" height="512" fill="url(#mint)"/>
    <rect width="512" height="512" fill="url(#bloom)"/>
    <g fill="#fff" opacity=".8">
      <circle cx="86" cy="118" r="4"/><circle cx="430" cy="392" r="5"/><circle cx="96" cy="400" r="3"/><circle cx="420" cy="92" r="3"/>
    </g>
    <ellipse cx="256" cy="424" rx="112" ry="18" fill="#6a4aa8" opacity=".18" filter="url(#glow)"/>
  </g>

  <g filter="url(#lift)">
    <rect x="152" y="130" width="208" height="280" rx="60" fill="url(#side)"/>
    <rect x="152" y="112" width="208" height="280" rx="60" fill="url(#pearl)"/>
  </g>
  <rect x="154" y="114" width="204" height="276" rx="58" fill="none" stroke="#fff" stroke-width="4" opacity=".9"/>
  <path d="M180 136c20-10 60-12 96-10" stroke="#fff" stroke-width="10" stroke-linecap="round" fill="none" opacity=".9"/>

  <rect x="180" y="146" width="152" height="92" rx="26" fill="#6b54c7" opacity=".35"/>
  <rect x="180" y="142" width="152" height="92" rx="26" fill="url(#screen)"/>
  <rect x="180" y="142" width="152" height="92" rx="26" fill="url(#screenGloss)"/>
  <rect x="222" y="170" width="86" height="14" rx="7" fill="#fff" opacity=".95"/>
  <rect x="262" y="196" width="46" height="14" rx="7" fill="#fff" opacity=".6"/>

  
    <circle cx="206" cy="290" r="18" fill="#1c1c1c"/>
    <circle cx="206" cy="286" r="18" fill="url(#k0)"/>
    <ellipse cx="200" cy="279" rx="6.5" ry="4.2" fill="#fff" opacity=".75" transform="rotate(-28 200 279)"/>
    <circle cx="256" cy="290" r="18" fill="#8f78e6"/>
    <circle cx="256" cy="286" r="18" fill="url(#k1)"/>
    <ellipse cx="250" cy="279" rx="6.5" ry="4.2" fill="#fff" opacity=".75" transform="rotate(-28 250 279)"/>
    <circle cx="306" cy="290" r="18" fill="#e0668a"/>
    <circle cx="306" cy="286" r="18" fill="url(#k2)"/>
    <ellipse cx="300" cy="279" rx="6.5" ry="4.2" fill="#fff" opacity=".75" transform="rotate(-28 300 279)"/>
    <circle cx="206" cy="342" r="18" fill="#76a852"/>
    <circle cx="206" cy="338" r="18" fill="url(#k3)"/>
    <ellipse cx="200" cy="331" rx="6.5" ry="4.2" fill="#fff" opacity=".75" transform="rotate(-28 200 331)"/>
    <circle cx="256" cy="342" r="18" fill="#5f80d8"/>
    <circle cx="256" cy="338" r="18" fill="url(#k4)"/>
    <ellipse cx="250" cy="331" rx="6.5" ry="4.2" fill="#fff" opacity=".75" transform="rotate(-28 250 331)"/>
    <circle cx="306" cy="342" r="18" fill="#ec6a58"/>
    <circle cx="306" cy="338" r="18" fill="url(#k5)"/>
    <ellipse cx="300" cy="331" rx="6.5" ry="4.2" fill="#fff" opacity=".75" transform="rotate(-28 300 331)"/>

  <g filter="url(#soft)">
    <path d="M362 70c4 30 22 48 52 52-30 4-48 22-52 52-4-30-22-48-52-52 30-4 48-22 52-52z" fill="url(#gold)" stroke="#fff" stroke-width="8" paint-order="stroke" stroke-linejoin="round"/>
  </g>
  <path d="M352 104c2-8 6-13 12-16" stroke="#fff" stroke-width="5" stroke-linecap="round" fill="none" opacity=".85"/>
  <path d="M420 172c1.6 12 8.6 19 20.6 20.6-12 1.6-19 8.6-20.6 20.6-1.6-12-8.6-19-20.6-20.6 12-1.6 19-8.6 20.6-20.6z" fill="#fff" opacity=".95"/>
</svg>